<svg width="435" height="292" viewBox="0 0 435 292" fill="none" xmlns="http://www.w3.org/2000/svg">
<path d="M26 43C26 33.6112 33.6112 26 43 26H427C429.761 26 432 28.2386 432 31V284C432 286.761 429.761 289 427 289H31C28.2386 289 26 286.761 26 284V43Z" stroke="url(#paint0_linear)" stroke-width="6"/>
<path d="M0 20C0 8.95431 8.95431 0 20 0H404C408.418 0 412 3.58172 412 8V261C412 265.418 408.418 269 404 269H8C3.58172 269 0 265.418 0 261V20Z" fill="#2D3031"/>
<g clip-path="url(#clip0)">
<path d="M246.662 143.132H143.679V213H246.662V143.132Z" fill="#FE5029"/>
<path d="M252.406 134.96H151.065C150.738 134.961 150.425 135.09 150.195 135.32C149.964 135.55 149.834 135.861 149.833 136.186V204.419C149.833 204.58 149.865 204.74 149.927 204.888C149.989 205.037 150.08 205.172 150.194 205.286C150.308 205.4 150.444 205.49 150.593 205.552C150.743 205.614 150.903 205.645 151.065 205.645H252.406C252.568 205.645 252.728 205.614 252.877 205.552C253.027 205.49 253.162 205.4 253.277 205.286C253.391 205.172 253.482 205.037 253.544 204.888C253.605 204.74 253.637 204.58 253.637 204.419V136.186C253.637 135.861 253.507 135.55 253.276 135.32C253.045 135.09 252.732 134.961 252.406 134.96ZM252.816 204.419C252.817 204.473 252.806 204.526 252.785 204.576C252.765 204.625 252.735 204.67 252.697 204.708C252.658 204.746 252.613 204.777 252.563 204.797C252.513 204.818 252.46 204.828 252.406 204.828H151.065C151.011 204.828 150.957 204.818 150.907 204.797C150.858 204.777 150.812 204.746 150.774 204.708C150.736 204.67 150.706 204.625 150.685 204.576C150.665 204.526 150.654 204.473 150.654 204.419V136.186C150.654 136.078 150.698 135.974 150.775 135.897C150.852 135.821 150.956 135.778 151.065 135.778H252.406C252.515 135.778 252.619 135.821 252.696 135.897C252.773 135.974 252.816 136.078 252.816 136.186V204.419Z" fill="#3F3D56"/>
<path d="M200.931 183.173H155.767C155.436 183.173 155.167 183.44 155.167 183.77V187.888C155.167 188.218 155.436 188.485 155.767 188.485H200.931C201.262 188.485 201.53 188.218 201.53 187.888V183.77C201.53 183.44 201.262 183.173 200.931 183.173Z" fill="#3F3D56"/>
<path d="M243.789 178.679H229.021C228.859 178.679 228.699 178.711 228.55 178.773C228.4 178.834 228.265 178.925 228.15 179.038C228.036 179.152 227.945 179.287 227.883 179.436C227.822 179.585 227.79 179.744 227.79 179.906V191.345C227.79 191.506 227.822 191.665 227.883 191.814C227.945 191.963 228.036 192.098 228.15 192.212C228.265 192.326 228.4 192.416 228.55 192.478C228.699 192.539 228.859 192.571 229.021 192.571H243.789C243.951 192.571 244.111 192.539 244.26 192.478C244.41 192.416 244.545 192.326 244.66 192.212C244.774 192.098 244.865 191.963 244.927 191.814C244.989 191.665 245.02 191.506 245.02 191.345V179.906C245.02 179.744 244.989 179.585 244.927 179.436C244.865 179.287 244.774 179.152 244.66 179.038C244.545 178.925 244.41 178.834 244.26 178.773C244.111 178.711 243.951 178.679 243.789 178.679ZM244.199 191.345C244.199 191.453 244.156 191.557 244.079 191.634C244.002 191.71 243.898 191.753 243.789 191.754H229.021C228.912 191.753 228.808 191.71 228.731 191.634C228.654 191.557 228.611 191.453 228.611 191.345V179.906C228.61 179.852 228.621 179.799 228.642 179.749C228.662 179.699 228.692 179.654 228.73 179.616C228.769 179.578 228.814 179.548 228.864 179.528C228.914 179.507 228.967 179.497 229.021 179.497H243.789C243.843 179.497 243.896 179.507 243.946 179.528C243.996 179.548 244.042 179.578 244.08 179.616C244.118 179.654 244.148 179.699 244.169 179.749C244.189 179.799 244.2 179.852 244.199 179.906V191.345Z" fill="#3F3D56"/>
<path d="M240.84 181.319H231.97C231.639 181.319 231.371 181.586 231.371 181.916V182.796C231.371 183.126 231.639 183.393 231.97 183.393H240.84C241.171 183.393 241.439 183.126 241.439 182.796V181.916C241.439 181.586 241.171 181.319 240.84 181.319Z" fill="#3F3D56"/>
<path d="M240.84 184.587H231.97C231.639 184.587 231.371 184.855 231.371 185.184V186.065C231.371 186.395 231.639 186.662 231.97 186.662H240.84C241.171 186.662 241.439 186.395 241.439 186.065V185.184C241.439 184.855 241.171 184.587 240.84 184.587Z" fill="#3F3D56"/>
<path d="M240.84 187.856H231.97C231.639 187.856 231.371 188.123 231.371 188.453V189.334C231.371 189.663 231.639 189.93 231.97 189.93H240.84C241.171 189.93 241.439 189.663 241.439 189.334V188.453C241.439 188.123 241.171 187.856 240.84 187.856Z" fill="#3F3D56"/>
<path d="M177.134 139.864H156.998C156.667 139.864 156.398 140.131 156.398 140.46V148.256C156.398 148.585 156.667 148.852 156.998 148.852H177.134C177.465 148.852 177.733 148.585 177.733 148.256V140.46C177.733 140.131 177.465 139.864 177.134 139.864Z" fill="#3F3D56"/>
<path d="M168.707 144.358C168.707 145.938 167.972 147.218 167.066 147.218C166.159 147.218 165.425 145.938 165.425 144.358C165.425 142.778 167.066 141.498 167.066 141.498C167.066 141.498 168.707 142.778 168.707 144.358Z" fill="#FE5029"/>
<path d="M322.249 103.286H321.649V170.004H253.637V170.601H322.249V103.286Z" fill="#3F3D56"/>
<path d="M143.679 170.601H75.0678V103.286H75.667V170.004H143.679V170.601Z" fill="#3F3D56"/>
<path d="M359.808 66.281H359.424V65.6118H359.712C359.763 65.6118 359.812 65.5916 359.848 65.5558C359.884 65.5199 359.904 65.4713 359.904 65.4206V61.9789C359.904 61.9282 359.884 61.8796 359.848 61.8437C359.812 61.8079 359.763 61.7877 359.712 61.7877H359.424V59.8331C359.424 59.2863 359.316 58.7449 359.106 58.2397C358.896 57.7345 358.588 57.2754 358.199 56.8888C357.811 56.5021 357.35 56.1954 356.843 55.9862C356.335 55.7769 355.792 55.6692 355.243 55.6692H354.816V55.1912C354.816 55.1405 354.796 55.0919 354.76 55.056C354.724 55.0201 354.675 55 354.624 55H351.168C351.117 55 351.068 55.0201 351.032 55.056C350.996 55.0919 350.976 55.1405 350.976 55.1912V55.6692H288.532C287.983 55.6692 287.439 55.7769 286.932 55.9862C286.424 56.1954 285.963 56.5021 285.575 56.8888C285.187 57.2754 284.879 57.7345 284.669 58.2397C284.458 58.7449 284.35 59.2863 284.35 59.8331V148.445C284.35 148.992 284.458 149.534 284.669 150.039C284.879 150.544 285.187 151.003 285.575 151.39C285.963 151.776 286.424 152.083 286.932 152.292C287.439 152.502 287.983 152.609 288.532 152.609H355.243C355.792 152.609 356.335 152.502 356.843 152.292C357.35 152.083 357.811 151.776 358.199 151.39C358.588 151.003 358.896 150.544 359.106 150.039C359.316 149.534 359.424 148.992 359.424 148.445V70.1051H359.808C359.859 70.1051 359.908 70.0849 359.944 70.0491C359.98 70.0132 360 69.9646 360 69.9139V66.4722C360 66.4471 359.995 66.4222 359.985 66.399C359.976 66.3758 359.962 66.3548 359.944 66.337C359.926 66.3192 359.905 66.3052 359.882 66.2956C359.858 66.2859 359.833 66.281 359.808 66.281Z" fill="#3F3D56"/>
<path d="M355.974 58.3929H288.377C288.062 58.3929 287.806 58.6473 287.806 58.9612V148.648C287.806 148.962 288.062 149.216 288.377 149.216H355.974C356.289 149.216 356.544 148.962 356.544 148.648V58.9612C356.544 58.6473 356.289 58.3929 355.974 58.3929Z" fill="#D0CDE1"/>
<path d="M325.474 102.905H314.881C314.55 102.905 314.282 103.172 314.282 103.501V105.788C314.282 106.117 314.55 106.384 314.881 106.384H325.474C325.805 106.384 326.073 106.117 326.073 105.788V103.501C326.073 103.172 325.805 102.905 325.474 102.905Z" fill="#3F3D56"/>
<path d="M339.73 75.812H300.625C300.294 75.812 300.026 76.0791 300.026 76.4087V76.7066C300.026 77.0361 300.294 77.3033 300.625 77.3033H339.73C340.061 77.3033 340.329 77.0361 340.329 76.7066V76.4087C340.329 76.0791 340.061 75.812 339.73 75.812Z" fill="#3F3D56"/>
<path d="M339.73 80.5346H300.625C300.294 80.5346 300.026 80.8017 300.026 81.1313V81.4292C300.026 81.7587 300.294 82.0259 300.625 82.0259H339.73C340.061 82.0259 340.329 81.7587 340.329 81.4292V81.1313C340.329 80.8017 340.061 80.5346 339.73 80.5346Z" fill="#3F3D56"/>
<path d="M339.73 85.2571H300.625C300.294 85.2571 300.026 85.5243 300.026 85.8539V86.1518C300.026 86.4813 300.294 86.7485 300.625 86.7485H339.73C340.061 86.7485 340.329 86.4813 340.329 86.1518V85.8539C340.329 85.5243 340.061 85.2571 339.73 85.2571Z" fill="#3F3D56"/>
<path d="M339.73 89.9797H300.625C300.294 89.9797 300.026 90.2469 300.026 90.5764V90.8743C300.026 91.2039 300.294 91.4711 300.625 91.4711H339.73C340.061 91.4711 340.329 91.2039 340.329 90.8743V90.5764C340.329 90.2469 340.061 89.9797 339.73 89.9797Z" fill="#3F3D56"/>
<path d="M339.73 94.7023H300.625C300.294 94.7023 300.026 94.9695 300.026 95.299V95.5969C300.026 95.9265 300.294 96.1936 300.625 96.1936H339.73C340.061 96.1936 340.329 95.9265 340.329 95.5969V95.299C340.329 94.9695 340.061 94.7023 339.73 94.7023Z" fill="#3F3D56"/>
<path d="M318.751 145.63C325.664 145.63 331.269 140.049 331.269 133.165C331.269 126.28 325.664 120.699 318.751 120.699C311.837 120.699 306.233 126.28 306.233 133.165C306.233 140.049 311.837 145.63 318.751 145.63Z" fill="#FE5029"/>
<path d="M322.44 142.78C319.336 142.78 316.302 141.863 313.721 140.146C311.14 138.428 309.129 135.988 307.941 133.132C306.753 130.276 306.442 127.134 307.048 124.102C307.653 121.07 309.148 118.285 311.343 116.1C313.538 113.914 316.334 112.425 319.379 111.822C322.423 111.219 325.579 111.529 328.446 112.712C331.314 113.895 333.765 115.898 335.49 118.468C337.214 121.038 338.135 124.06 338.135 127.151C338.13 131.294 336.475 135.267 333.533 138.197C330.59 141.127 326.601 142.775 322.44 142.78ZM322.44 112.09C319.449 112.09 316.525 112.974 314.038 114.629C311.551 116.283 309.613 118.636 308.468 121.387C307.323 124.139 307.024 127.168 307.607 130.089C308.191 133.011 309.631 135.694 311.746 137.8C313.861 139.907 316.556 141.341 319.49 141.922C322.424 142.503 325.464 142.205 328.228 141.065C330.991 139.925 333.353 137.995 335.015 135.518C336.677 133.041 337.564 130.13 337.564 127.151C337.559 123.158 335.965 119.33 333.129 116.506C330.294 113.683 326.45 112.095 322.44 112.09Z" fill="#3F3D56"/>
<path d="M98.5875 81.2296H98.0741V67.2249C98.0741 66.1605 97.8636 65.1065 97.4545 64.1231C97.0455 63.1397 96.4459 62.2461 95.6901 61.4934C94.9343 60.7408 94.037 60.1437 93.0495 59.7364C92.0619 59.329 91.0035 59.1194 89.9346 59.1194H60.1395C59.0706 59.1194 58.0122 59.329 57.0247 59.7364C56.0371 60.1437 55.1398 60.7408 54.384 61.4934C53.6282 62.2461 53.0287 63.1397 52.6196 64.1231C52.2106 65.1065 52 66.1605 52 67.2249V144.056C52 145.12 52.2106 146.174 52.6196 147.158C53.0287 148.141 53.6282 149.035 54.384 149.787C55.1399 150.54 56.0371 151.137 57.0247 151.544C58.0122 151.952 59.0706 152.161 60.1395 152.161H89.9346C91.0035 152.161 92.0619 151.952 93.0495 151.544C94.037 151.137 94.9343 150.54 95.6901 149.787C96.4459 149.035 97.0455 148.141 97.4545 147.158C97.8636 146.174 98.0741 145.12 98.0741 144.056V91.1984H98.5875V81.2296Z" fill="#3F3D56"/>
<path d="M96.3408 67.7013V144.42C96.341 146.026 95.7009 147.565 94.5611 148.701C93.4213 149.836 91.8753 150.474 90.2632 150.474H60.3242C58.7121 150.474 57.1661 149.836 56.0263 148.701C54.8865 147.565 54.2464 146.026 54.2467 144.42V67.7013C54.2468 66.0962 54.8872 64.5569 56.0269 63.4219C57.1667 62.287 58.7124 61.6493 60.3242 61.6491H63.9565C63.7778 62.0857 63.7096 62.5595 63.758 63.0285C63.8064 63.4976 63.9699 63.9476 64.2341 64.3389C64.4982 64.7302 64.855 65.0509 65.2729 65.2725C65.6908 65.4942 66.1571 65.6102 66.6306 65.6101H83.7C84.1735 65.6102 84.6398 65.4942 85.0577 65.2726C85.4756 65.0509 85.8324 64.7303 86.0966 64.3389C86.3607 63.9476 86.5242 63.4976 86.5726 63.0285C86.621 62.5595 86.5528 62.0857 86.3741 61.6491H90.2632C91.875 61.6493 93.4208 62.287 94.5605 63.422C95.7002 64.5569 96.3406 66.0962 96.3408 67.7013Z" fill="#D0CDE1"/>
<path d="M78.7046 106.848H71.8829C71.5519 106.848 71.2837 107.115 71.2837 107.444V108.618C71.2837 108.947 71.5519 109.214 71.8829 109.214H78.7046C79.0355 109.214 79.3038 108.947 79.3038 108.618V107.444C79.3038 107.115 79.0355 106.848 78.7046 106.848Z" fill="#3F3D56"/>
<path d="M88.4906 88.4204H62.0969C61.8156 88.4204 61.5876 88.6474 61.5876 88.9275C61.5876 89.2076 61.8156 89.4347 62.0969 89.4347H88.4906C88.7718 89.4347 88.9999 89.2076 88.9999 88.9275C88.9999 88.6474 88.7718 88.4204 88.4906 88.4204Z" fill="#3F3D56"/>
<path d="M88.4906 91.6324H62.0969C61.8156 91.6324 61.5876 91.8595 61.5876 92.1396C61.5876 92.4197 61.8156 92.6468 62.0969 92.6468H88.4906C88.7718 92.6468 88.9999 92.4197 88.9999 92.1396C88.9999 91.8595 88.7718 91.6324 88.4906 91.6324Z" fill="#3F3D56"/>
<path d="M88.4906 94.8445H62.0969C61.8156 94.8445 61.5876 95.0716 61.5876 95.3517C61.5876 95.6318 61.8156 95.8588 62.0969 95.8588H88.4906C88.7718 95.8588 88.9999 95.6318 88.9999 95.3517C88.9999 95.0716 88.7718 94.8445 88.4906 94.8445Z" fill="#3F3D56"/>
<path d="M88.4906 98.0566H62.0969C61.8156 98.0566 61.5876 98.2836 61.5876 98.5637C61.5876 98.8438 61.8156 99.0709 62.0969 99.0709H88.4906C88.7718 99.0709 88.9999 98.8438 88.9999 98.5637C88.9999 98.2836 88.7718 98.0566 88.4906 98.0566Z" fill="#3F3D56"/>
<path d="M88.4906 101.269H62.0969C61.8156 101.269 61.5876 101.496 61.5876 101.776C61.5876 102.056 61.8156 102.283 62.0969 102.283H88.4906C88.7718 102.283 88.9999 102.056 88.9999 101.776C88.9999 101.496 88.7718 101.269 88.4906 101.269Z" fill="#3F3D56"/>
<path d="M72.9355 140.084C77.7032 140.084 81.5682 136.235 81.5682 131.487C81.5682 126.739 77.7032 122.89 72.9355 122.89C68.1677 122.89 64.3027 126.739 64.3027 131.487C64.3027 136.235 68.1677 140.084 72.9355 140.084Z" fill="#FE5029"/>
<path d="M75.4799 138.118C73.3393 138.118 71.2467 137.486 69.4668 136.301C67.6869 135.117 66.2996 133.434 65.4804 131.464C64.6612 129.495 64.4469 127.328 64.8645 125.237C65.2821 123.146 66.3129 121.225 67.8266 119.718C69.3403 118.211 71.2688 117.184 73.3684 116.768C75.4679 116.352 77.6441 116.566 79.6219 117.382C81.5996 118.197 83.29 119.579 84.4793 121.351C85.6686 123.124 86.3033 125.208 86.3033 127.339C86.3001 130.197 85.1587 132.937 83.1297 134.957C81.1006 136.978 78.3495 138.115 75.4799 138.118ZM75.4799 116.953C73.4171 116.953 71.4006 117.562 69.6854 118.704C67.9702 119.845 66.6334 121.467 65.844 123.365C65.0546 125.263 64.8481 127.351 65.2505 129.366C65.6529 131.381 66.6463 133.231 68.1049 134.684C69.5636 136.136 71.422 137.125 73.4452 137.526C75.4684 137.927 77.5655 137.721 79.4713 136.935C81.3771 136.149 83.006 134.818 84.152 133.11C85.2981 131.402 85.9098 129.394 85.9098 127.339C85.9067 124.586 84.8068 121.946 82.8515 119.999C80.8962 118.052 78.2451 116.956 75.4799 116.953Z" fill="#3F3D56"/>
<path d="M104.583 166.943H96.1943V175.297H104.583V166.943Z" fill="#D0CDE1"/>
<path d="M109.677 170.523H99.4901V160.379H109.677V170.523ZM99.933 170.082H109.234V160.82H99.933V170.082Z" fill="#3F3D56"/>
<path d="M292.441 166.943H284.052V175.297H292.441V166.943Z" fill="#D0CDE1"/>
<path d="M297.534 170.523H287.348V160.379H297.534V170.523ZM287.791 170.082H297.092V160.82H287.791V170.082Z" fill="#3F3D56"/>
</g>
<defs>
<linearGradient id="paint0_linear" x1="444" y1="385" x2="185" y2="68.5" gradientUnits="userSpaceOnUse">
<stop offset="0.614157" stop-color="#FF3A0E"/>
<stop offset="1" stop-color="#FE5029" stop-opacity="0"/>
</linearGradient>
<clipPath id="clip0">
<rect width="308" height="158" fill="white" transform="translate(52 55)"/>
</clipPath>
</defs>
</svg>
